<?xml version="1.0" encoding="UTF-8"?>
<svg xmlns="http://www.w3.org/2000/svg" width="400" height="400" viewBox="0 0 400 400" fill="none">
  <g transform="translate(50, 50)">
    <!-- Облако и книга -->
    <path d="M150 30C85.44 30 33 82.44 33 147C33 211.56 85.44 264 150 264C214.56 264 267 211.56 267 147C267 82.44 214.56 30 150 30ZM150 42C208.02 42 255 88.98 255 147C255 205.02 208.02 252 150 252C91.98 252 45 205.02 45 147C45 88.98 91.98 42 150 42Z" fill="white"/>
    <path d="M198 96H102C99.24 96 97.02 98.22 97.02 100.98V195C97.02 197.76 99.24 199.98 102 199.98H198C200.76 199.98 202.98 197.76 202.98 195V100.98C202.98 98.22 200.76 96 198 96ZM102 195V101.04H150V195H102ZM198 195H162V101.04H198V195Z" fill="white"/>
  </g>
  <!-- Текст "LitCloud" -->
  <text x="200" y="350" text-anchor="middle" font-family="Arial, sans-serif" font-size="48" font-weight="bold" fill="white">LitCloud</text>
</svg> 